<svg height="512" viewBox="0 0 64 64" width="512" xmlns="http://www.w3.org/2000/svg"><g id="outline"><path d="m15.243 61.653a1 1 0 0 0 .757.347h32a1 1 0 0 0 .989-1.146l-4.932-33.542a12.143 12.143 0 0 0 2.943-7.312v-4a14.015 14.015 0 0 0 -14-14h-2a14.015 14.015 0 0 0 -14 14v4a12.143 12.143 0 0 0 2.943 7.312l-4.932 33.542a1 1 0 0 0 .232.799zm6.746-34.507a1 1 0 0 0 -.266-.837c-.023-.029-2.723-2.884-2.723-6.309v-4a12.013 12.013 0 0 1 12-12h2a12.013 12.013 0 0 1 12 12v4c0 3.4-2.7 6.281-2.724 6.31a1 1 0 0 0 -.265.836l4.831 32.854h-29.684z"/><path d="m32 37c3.878 0 8-2.1 8-6.071l-1-13.945a1 1 0 0 0 -1.574-.745 9.243 9.243 0 0 1 -10.854 0 1 1 0 0 0 -1.572.745l-1 14.016c0 3.9 4.122 6 8 6zm-5.123-18.24a11.235 11.235 0 0 0 10.246 0l.877 12.24c0 2.3-2.425 3.661-5 3.943v-1.943h-2v1.943c-2.575-.281-5-1.634-5-3.872z"/><path d="m28 22h2v2h-2z"/><path d="m34 22h2v2h-2z"/><path d="m24 10h2v2h-2z"/><path d="m38 10h2v2h-2z"/><path d="m42 56h2v2h-2z"/><path d="m38 54h2v2h-2z"/><path d="m32 41a11.368 11.368 0 0 1 -7.343-2.754l-1.314 1.508a13.167 13.167 0 0 0 17.314 0l-1.314-1.508a11.368 11.368 0 0 1 -7.343 2.754z"/></g></svg>