<?xml version="1.0" encoding="UTF-8" standalone="no"?>
<svg
   xmlns:dc="http://purl.org/dc/elements/1.1/"
   xmlns:cc="http://creativecommons.org/ns#"
   xmlns:rdf="http://www.w3.org/1999/02/22-rdf-syntax-ns#"
   xmlns:svg="http://www.w3.org/2000/svg"
   xmlns="http://www.w3.org/2000/svg"
   xmlns:sodipodi="http://sodipodi.sourceforge.net/DTD/sodipodi-0.dtd"
   version="1.1"
   id="Layer_1"
   x="0px"
   y="0px"
   width="201.582"
   height="282.21399"
   viewBox="0 0 201.582 282.21399"
   enable-background="new 0 0 1400 980"
   xml:space="preserve"
   sodipodi:docname="Playing Card Back copy.svg"><metadata
   id="metadata1008"><rdf:RDF><cc:Work
       rdf:about=""><dc:format>image/svg+xml</dc:format><dc:type
         rdf:resource="http://purl.org/dc/dcmitype/StillImage" /></cc:Work></rdf:RDF></metadata><defs
   id="defs1006" /><sodipodi:namedview
   pagecolor="#ffffff"
   bordercolor="#666666"
   borderopacity="1"
   objecttolerance="10"
   gridtolerance="10"
   guidetolerance="10"
   id="namedview1004"
   showgrid="false" />
<g
   id="g1001"
   transform="translate(-824.163,-548.046)">
	<g
   id="g999">
		<path
   fill="#030202"
   d="m 1025.745,558.123 c 0,-5.565 -4.513,-10.077 -10.079,-10.077 v 0 H 834.242 v 0 0 c -5.566,0 -10.079,4.512 -10.079,10.077 v 0 262.058 c 0,5.566 4.513,10.079 10.079,10.079 0.007,0 0.014,0 0.022,0 h 181.38 c 0.01,0 0.015,0 0.021,0 5.566,0 10.079,-4.513 10.079,-10.079 V 558.123 Z"
   id="path943" />
		<g
   id="g997">
			<g
   id="g969">
				<g
   id="g955">
					<path
   fill="#ffffff"
   d="m 1008.546,668.161 h -1.119 V 565.684 h -14.384 l 10.079,10.499 h -1.314 c -0.031,0.005 -1.427,0.165 -5.819,3.525 -1.986,1.518 -2.652,3.816 -3.357,6.251 -0.905,3.121 -1.931,6.66 -5.92,9.221 -1.895,1.216 -4.779,1.055 -7.013,-0.394 -2.264,-1.468 -3.338,-3.813 -2.942,-6.438 0.583,-3.877 3.192,-5.196 5.451,-5.2 2.248,0.028 4.114,1.397 4.337,3.184 0.381,3.043 -1.568,4.386 -2.653,4.671 l -0.284,-1.083 0.143,0.542 -0.146,-0.54 c 0.09,-0.025 2.182,-0.641 1.83,-3.45 -0.151,-1.215 -1.574,-2.183 -3.24,-2.203 -1.78,0 -3.853,1.081 -4.329,4.246 -0.326,2.17 0.563,4.113 2.445,5.332 1.876,1.216 4.261,1.378 5.798,0.391 3.636,-2.333 4.557,-5.515 5.449,-8.59 0.757,-2.616 1.474,-5.087 3.752,-6.83 2.82,-2.156 4.507,-3.077 5.461,-3.469 l -10.355,-10.784 h 18.133 v 103.596 z"
   id="path945" />
					<path
   fill="#ffffff"
   d="m 974.518,586.563 c -0.028,-0.171 -0.659,-4.222 2.398,-6.36 1.479,-1.033 3.489,-1.35 5.517,-0.865 1.234,0.296 2.285,0.849 2.977,1.546 0.951,-1.706 3.462,-5.575 7.001,-6.324 l -16.862,-15.875 h -22.953 v -1.12 h 23.396 l 19.131,18.01 -1.442,-0.021 c -4.517,-0.035 -7.643,6.54 -7.674,6.608 l -0.475,1.007 -0.526,-0.98 c -0.403,-0.755 -1.517,-1.445 -2.833,-1.76 -1.69,-0.401 -3.417,-0.145 -4.615,0.694 -2.484,1.736 -1.94,5.223 -1.935,5.258 z"
   id="path947" />
					<polygon
   fill="#ffffff"
   points="978.446,560.084 1016.226,560.084 1016.226,681.32 1015.106,681.32 1015.106,561.204 978.446,561.204 "
   id="polygon949" />
					<path
   fill="#ffffff"
   d="m 976.775,577.33 c -0.251,0 -0.517,-0.012 -0.798,-0.039 -1.986,-0.193 -3.375,-0.986 -4.125,-2.358 -1.842,-3.368 0.992,-8.986 1.114,-9.224 l 1.014,0.475 c -0.228,0.533 -0.209,2.315 0.549,3.042 0.148,0.143 0.6,0.575 1.774,0.013 1.189,-0.568 1.717,-2.306 1.281,-4.223 -0.398,-1.758 -1.754,-3.812 -4.26,-3.812 -1.311,0 -2.324,0.382 -3.015,1.133 -1.265,1.378 -1.094,3.557 -1.093,3.579 l 0.051,0.607 h -16.674 c -7.131,0 -12.551,-6.498 -13.594,-7.839 h -8.493 v -1.12 h 9.056 l 0.168,0.229 c 0.055,0.076 5.654,7.61 12.863,7.61 h 15.497 c 0.03,-0.892 0.249,-2.577 1.394,-3.825 0.912,-0.991 2.203,-1.495 3.84,-1.495 3.166,0 4.862,2.523 5.353,4.685 0.551,2.43 -0.227,4.685 -1.891,5.48 -1.549,0.741 -2.504,0.293 -3.033,-0.216 -0.366,-0.352 -0.62,-0.822 -0.782,-1.329 -0.564,1.77 -1.004,4.107 -0.135,5.693 0.568,1.04 1.631,1.621 3.25,1.778 1.787,0.176 3.117,-0.328 3.752,-1.412 0.536,-0.915 0.433,-1.974 0.063,-2.506 -0.28,-0.401 -0.591,-0.346 -0.692,-0.33 l -0.194,-1.103 c 0.712,-0.128 1.368,0.164 1.806,0.794 0.679,0.977 0.673,2.537 -0.016,3.711 -0.456,0.78 -1.567,2.002 -4.03,2.002 z"
   id="path951" />
					<path
   fill="#ffffff"
   d="m 1015.235,630.169 -11.448,-13.735 v -10.562 c -0.58,-3.103 -2.535,-5.901 -4.427,-8.608 -2.05,-2.934 -3.986,-5.705 -3.833,-8.64 0.181,-3.417 3.465,-5.783 6.42,-5.849 2.06,-0.022 3.479,1.06 3.657,2.885 0.455,4.711 -3.955,6.439 -3.998,6.457 l -0.399,-1.047 c 0.149,-0.058 3.655,-1.454 3.282,-5.303 -0.168,-1.736 -1.817,-1.867 -2.517,-1.872 -2.13,0.047 -5.166,1.736 -5.325,4.788 -0.136,2.549 1.695,5.167 3.631,7.939 1.96,2.805 3.986,5.705 4.619,9.148 l 0.01,10.257 11.19,13.423 z"
   id="path953" />
				</g>
				<g
   id="g967">
					<path
   fill="#ffffff"
   d="M 842.479,668.161 H 841.36 V 564.564 h 18.132 l -10.354,10.784 c 0.953,0.392 2.64,1.313 5.461,3.469 2.278,1.743 2.994,4.214 3.752,6.83 0.892,3.075 1.813,6.257 5.449,8.59 1.537,0.987 3.923,0.825 5.798,-0.391 1.881,-1.219 2.771,-3.162 2.444,-5.332 -0.471,-3.133 -2.507,-4.246 -4.275,-4.246 -0.018,0 -0.035,0 -0.053,0 -1.666,0.021 -3.089,0.988 -3.241,2.203 -0.354,2.841 1.737,3.425 1.827,3.448 l -0.285,1.083 c -1.084,-0.285 -3.033,-1.628 -2.653,-4.671 0.223,-1.786 2.089,-3.155 4.338,-3.184 0.023,0 0.046,0 0.069,0 2.236,0 4.803,1.362 5.382,5.2 0.395,2.624 -0.678,4.97 -2.943,6.438 -2.234,1.446 -5.117,1.607 -7.013,0.394 -3.989,-2.561 -5.015,-6.1 -5.918,-9.221 -0.707,-2.435 -1.372,-4.733 -3.358,-6.251 -4.393,-3.36 -5.789,-3.521 -5.846,-3.526 l -1.16,-0.104 0.782,-0.843 9.169,-9.551 h -14.385 z"
   id="path957" />
					<path
   fill="#ffffff"
   d="m 875.39,586.563 -1.105,-0.183 c 0.006,-0.034 0.538,-3.531 -1.935,-5.259 -1.198,-0.839 -2.925,-1.096 -4.615,-0.694 -1.316,0.314 -2.429,1.005 -2.833,1.76 l -0.525,0.98 -0.475,-1.007 c -0.032,-0.067 -3.166,-6.608 -7.609,-6.608 -0.022,0 -0.043,0 -0.065,0 l -1.441,0.021 19.131,-18.01 h 23.396 v 1.12 h -22.952 l -16.864,15.875 c 3.541,0.749 6.051,4.618 7.002,6.324 0.691,-0.697 1.743,-1.25 2.977,-1.546 2.028,-0.483 4.039,-0.167 5.518,0.865 3.053,2.141 2.423,6.192 2.395,6.362 z"
   id="path959" />
					<polygon
   fill="#ffffff"
   points="871.462,561.204 834.8,561.204 834.8,681.32 833.681,681.32 833.681,560.084 871.462,560.084 "
   id="polygon961" />
					<path
   fill="#ffffff"
   d="m 873.131,577.33 c -2.463,0 -3.572,-1.222 -4.029,-2 -0.687,-1.174 -0.693,-2.734 -0.016,-3.711 0.438,-0.63 1.095,-0.922 1.807,-0.794 l -0.194,1.103 c -0.101,-0.016 -0.411,-0.071 -0.692,0.33 -0.37,0.532 -0.474,1.591 0.063,2.506 0.634,1.084 1.966,1.588 3.752,1.412 1.618,-0.157 2.681,-0.738 3.251,-1.778 0.867,-1.586 0.429,-3.924 -0.136,-5.693 -0.163,0.507 -0.416,0.978 -0.782,1.329 -0.529,0.509 -1.484,0.956 -3.034,0.216 -1.664,-0.796 -2.44,-3.051 -1.89,-5.48 0.49,-2.161 2.186,-4.685 5.353,-4.685 1.636,0 2.928,0.504 3.839,1.495 1.146,1.248 1.365,2.934 1.394,3.825 h 15.497 c 7.22,0 12.809,-7.533 12.863,-7.61 l 0.168,-0.229 h 9.057 v 1.12 h -8.494 c -1.042,1.341 -6.461,7.839 -13.594,7.839 H 880.64 l 0.05,-0.606 c 10e-4,-0.022 0.164,-2.216 -1.098,-3.585 -0.69,-0.748 -1.703,-1.128 -3.01,-1.128 -2.507,0 -3.861,2.054 -4.261,3.812 -0.436,1.917 0.092,3.654 1.281,4.223 1.175,0.563 1.627,0.13 1.774,-0.013 0.759,-0.727 0.776,-2.509 0.549,-3.042 l 1.015,-0.475 c 0.121,0.237 2.955,5.855 1.113,9.224 -0.75,1.372 -2.138,2.165 -4.125,2.358 -0.28,0.024 -0.546,0.037 -0.797,0.037 z"
   id="path963" />
					<path
   fill="#ffffff"
   d="m 834.671,630.169 -0.86,-0.718 L 845,616.029 v -10.157 c 0.643,-3.544 2.668,-6.444 4.628,-9.249 1.937,-2.772 3.767,-5.391 3.632,-7.939 -0.16,-3.052 -3.196,-4.741 -5.325,-4.788 -0.706,0.005 -2.349,0.136 -2.518,1.872 -0.374,3.869 3.244,5.289 3.281,5.302 l -0.396,1.048 c -0.045,-0.018 -4.455,-1.746 -3.999,-6.457 0.173,-1.789 1.522,-2.886 3.532,-2.886 0.041,0 0.082,10e-4 0.124,10e-4 2.955,0.065 6.24,2.432 6.42,5.849 0.154,2.935 -1.783,5.706 -3.832,8.64 -1.893,2.707 -3.848,5.506 -4.437,8.709 l 0.009,10.461 z"
   id="path965" />
				</g>
			</g>

			<g
   id="g995">
				<g
   id="g981">
					<path
   fill="#ffffff"
   d="M 859.492,813.741 H 841.36 V 710.145 h 1.119 v 102.477 h 14.385 l -10.079,-10.499 h 1.313 c 0.031,-0.004 1.428,-0.165 5.82,-3.524 1.986,-1.518 2.651,-3.816 3.358,-6.251 0.903,-3.122 1.929,-6.661 5.918,-9.221 1.896,-1.217 4.779,-1.054 7.013,0.394 2.266,1.468 3.338,3.813 2.943,6.438 -0.579,3.837 -3.146,5.2 -5.382,5.2 -0.023,0 -0.046,0 -0.069,0 -2.249,-0.028 -4.115,-1.397 -4.338,-3.184 -0.38,-3.043 1.569,-4.386 2.653,-4.671 l 0.285,1.082 -0.144,-0.541 0.146,0.54 c -0.09,0.025 -2.181,0.64 -1.83,3.449 0.152,1.216 1.575,2.184 3.241,2.204 0.018,0 0.035,0 0.053,0 1.769,0 3.805,-1.112 4.275,-4.247 0.327,-2.169 -0.563,-4.112 -2.444,-5.331 -1.877,-1.215 -4.262,-1.378 -5.798,-0.391 -3.637,2.333 -4.558,5.515 -5.449,8.59 -0.758,2.616 -1.474,5.086 -3.752,6.83 -2.821,2.156 -4.508,3.077 -5.461,3.469 z"
   id="path971" />
					<path
   fill="#ffffff"
   d="m 897.312,820.741 h -23.396 l -19.131,-18.01 1.441,0.021 c 0.022,0 0.044,0 0.065,0 4.444,0 7.577,-6.541 7.609,-6.607 l 0.475,-1.007 0.525,0.98 c 0.404,0.755 1.517,1.445 2.833,1.76 1.69,0.4 3.417,0.145 4.615,-0.694 2.484,-1.736 1.94,-5.224 1.936,-5.258 l 1.104,-0.185 c 0.028,0.172 0.658,4.223 -2.398,6.361 -1.479,1.033 -3.489,1.349 -5.518,0.864 -1.233,-0.295 -2.285,-0.849 -2.977,-1.545 -0.951,1.706 -3.463,5.574 -7.002,6.323 l 16.864,15.876 h 22.952 v 1.121 z"
   id="path973" />
					<polygon
   fill="#ffffff"
   points="834.8,817.102 871.462,817.102 871.462,818.221 833.681,818.221 833.681,696.985 834.8,696.985 "
   id="polygon975" />
					<path
   fill="#ffffff"
   d="m 919.399,820.741 h -9.057 l -0.168,-0.23 c -0.055,-0.075 -5.654,-7.609 -12.863,-7.609 h -15.497 c -0.028,0.892 -0.247,2.577 -1.394,3.824 -0.911,0.992 -2.203,1.495 -3.839,1.495 -3.167,0 -4.862,-2.522 -5.353,-4.684 -0.551,-2.431 0.226,-4.685 1.89,-5.48 1.551,-0.739 2.505,-0.292 3.034,0.216 0.366,0.352 0.619,0.822 0.782,1.328 0.564,-1.77 1.003,-4.106 0.136,-5.692 -0.57,-1.04 -1.633,-1.622 -3.251,-1.778 -1.786,-0.179 -3.118,0.328 -3.752,1.412 -0.536,0.914 -0.433,1.973 -0.063,2.506 0.281,0.401 0.592,0.347 0.692,0.33 l 0.194,1.103 c -0.712,0.13 -1.368,-0.163 -1.807,-0.794 -0.678,-0.977 -0.671,-2.537 0.016,-3.711 0.503,-0.858 1.799,-2.253 4.827,-1.961 1.987,0.193 3.375,0.986 4.125,2.357 1.842,3.369 -0.992,8.987 -1.113,9.225 l -1.015,-0.475 c 0.228,-0.533 0.21,-2.315 -0.549,-3.042 -0.147,-0.143 -0.6,-0.576 -1.774,-0.013 -1.189,0.568 -1.717,2.306 -1.281,4.223 0.399,1.757 1.754,3.812 4.261,3.812 1.311,0 2.324,-0.382 3.014,-1.134 1.266,-1.378 1.095,-3.557 1.094,-3.578 l -0.052,-0.608 h 16.674 c 7.133,0 12.552,6.499 13.594,7.84 h 8.494 v 1.118 z"
   id="path977" />
					<path
   fill="#ffffff"
   d="m 847.835,795.531 c -2.011,0 -3.359,-1.098 -3.532,-2.887 -0.456,-4.71 3.954,-6.439 3.999,-6.457 l 0.398,1.047 c -0.15,0.059 -3.654,1.455 -3.283,5.304 0.169,1.736 1.812,1.879 2.518,1.872 2.129,-0.047 5.165,-1.736 5.325,-4.788 0.135,-2.55 -1.695,-5.168 -3.632,-7.94 -1.96,-2.804 -3.985,-5.704 -4.618,-9.147 l -0.01,-10.258 -11.189,-13.424 0.86,-0.717 11.448,13.735 v 10.562 c 0.58,3.103 2.535,5.9 4.428,8.607 2.049,2.935 3.986,5.706 3.832,8.64 -0.18,3.418 -3.465,5.783 -6.42,5.85 -0.042,0 -0.083,10e-4 -0.124,10e-4 z"
   id="path979" />
				</g>
				<g
   id="g993">
					<path
   fill="#ffffff"
   d="m 1008.546,813.741 h -18.133 l 10.355,-10.784 c -0.954,-0.392 -2.641,-1.313 -5.461,-3.469 -2.278,-1.744 -2.995,-4.214 -3.752,-6.83 -0.893,-3.075 -1.813,-6.257 -5.449,-8.59 -1.537,-0.986 -3.922,-0.824 -5.798,0.391 -1.882,1.219 -2.771,3.162 -2.445,5.331 0.472,3.134 2.509,4.247 4.275,4.247 0.019,0 0.036,0 0.054,0 1.666,-0.021 3.089,-0.988 3.24,-2.204 0.354,-2.84 -1.736,-3.424 -1.826,-3.448 l 0.284,-1.082 c 1.085,0.285 3.034,1.628 2.653,4.671 -0.223,1.786 -2.089,3.155 -4.337,3.184 -0.023,0 -0.046,0 -0.07,0 -2.235,0 -4.803,-1.363 -5.381,-5.2 -0.396,-2.624 0.679,-4.97 2.942,-6.438 2.234,-1.449 5.116,-1.61 7.013,-0.394 3.989,2.56 5.015,6.099 5.92,9.221 0.705,2.435 1.371,4.733 3.357,6.251 4.393,3.359 5.788,3.521 5.847,3.525 l 1.159,0.105 -0.782,0.842 -9.169,9.551 h 14.384 V 710.145 h 1.119 v 103.596 z"
   id="path983" />
					<path
   fill="#ffffff"
   d="m 975.991,820.741 h -23.396 v -1.12 h 22.953 l 16.862,-15.876 c -3.539,-0.749 -6.05,-4.617 -7.001,-6.323 -0.691,0.696 -1.742,1.25 -2.977,1.545 -2.027,0.484 -4.038,0.169 -5.517,-0.864 -3.058,-2.139 -2.427,-6.189 -2.398,-6.361 l 1.105,0.183 c -0.007,0.035 -0.538,3.531 1.934,5.26 1.198,0.839 2.925,1.095 4.615,0.694 1.316,-0.314 2.43,-1.005 2.833,-1.76 l 0.526,-0.98 0.475,1.007 c 0.031,0.066 3.165,6.607 7.61,6.607 0.021,0 0.042,0 0.063,0 l 1.442,-0.021 z"
   id="path985" />
					<polygon
   fill="#ffffff"
   points="1015.106,696.985 1016.226,696.985 1016.226,818.221 978.446,818.221 978.446,817.102 1015.106,817.102 "
   id="polygon987" />
					<path
   fill="#ffffff"
   d="m 939.563,820.741 h -9.056 v -1.12 H 939 c 1.043,-1.341 6.463,-7.84 13.594,-7.84 h 16.672 l -0.049,0.607 c -10e-4,0.021 -0.164,2.216 1.097,3.585 0.691,0.748 1.704,1.128 3.011,1.128 2.506,0 3.861,-2.055 4.26,-3.812 0.436,-1.917 -0.092,-3.654 -1.281,-4.223 -1.175,-0.563 -1.626,-0.13 -1.774,0.013 -0.758,0.727 -0.776,2.509 -0.549,3.042 l -1.014,0.475 c -0.122,-0.237 -2.956,-5.855 -1.114,-9.225 0.75,-1.371 2.139,-2.164 4.125,-2.357 3.031,-0.278 4.324,1.104 4.827,1.961 0.688,1.174 0.694,2.734 0.016,3.711 -0.438,0.631 -1.094,0.924 -1.806,0.794 l 0.194,-1.103 c 0.102,0.017 0.412,0.071 0.692,-0.33 0.37,-0.533 0.474,-1.592 -0.063,-2.506 -0.635,-1.084 -1.965,-1.591 -3.752,-1.412 -1.619,0.156 -2.682,0.738 -3.25,1.778 -0.869,1.586 -0.43,3.923 0.135,5.692 0.162,-0.506 0.416,-0.977 0.782,-1.328 0.529,-0.508 1.484,-0.955 3.033,-0.216 1.664,0.796 2.441,3.05 1.891,5.48 -0.49,2.161 -2.187,4.684 -5.353,4.684 -1.637,0 -2.928,-0.503 -3.84,-1.495 -1.145,-1.247 -1.363,-2.933 -1.394,-3.824 h -15.497 c -7.22,0 -12.808,7.533 -12.863,7.609 z"
   id="path989" />
					<path
   fill="#ffffff"
   d="m 1002.072,795.531 c -0.042,0 -0.083,-10e-4 -0.125,-10e-4 -2.955,-0.066 -6.239,-2.432 -6.42,-5.85 -0.153,-2.934 1.783,-5.705 3.833,-8.64 1.892,-2.707 3.847,-5.505 4.436,-8.709 l -0.01,-10.46 11.448,-13.735 0.861,0.717 -11.19,13.423 v 10.157 c -0.642,3.544 -2.668,6.444 -4.628,9.248 -1.936,2.772 -3.767,5.391 -3.631,7.94 0.159,3.052 3.195,4.741 5.325,4.788 0.699,0.007 2.349,-0.136 2.517,-1.872 0.374,-3.87 -3.244,-5.289 -3.281,-5.303 l 0.398,-1.048 c 0.043,0.018 4.453,1.747 3.998,6.457 -0.172,1.791 -1.522,2.888 -3.532,2.888 z"
   id="path991" />
				</g>
			</g>

		</g>
	</g>
</g>
<g
   id="outline"
   transform="matrix(1.6077341,0,0,1.6077341,49.343523,89.659503)"
   style="fill:#ffffff;fill-opacity:1;stroke:#000000;stroke-width:0.684193;stroke-miterlimit:4;stroke-dasharray:none;stroke-opacity:1"><path
     d="M 15.243,61.653 A 1,1 0 0 0 16,62 h 32 a 1,1 0 0 0 0.989,-1.146 L 44.057,27.312 A 12.143,12.143 0 0 0 47,20 V 16 A 14.015,14.015 0 0 0 33,2 H 31 A 14.015,14.015 0 0 0 17,16 v 4 a 12.143,12.143 0 0 0 2.943,7.312 l -4.932,33.542 a 1,1 0 0 0 0.232,0.799 z M 21.989,27.146 A 1,1 0 0 0 21.723,26.309 C 21.7,26.28 19,23.425 19,20 V 16 A 12.013,12.013 0 0 1 31,4 h 2 a 12.013,12.013 0 0 1 12,12 v 4 c 0,3.4 -2.7,6.281 -2.724,6.31 a 1,1 0 0 0 -0.265,0.836 L 46.842,60 H 17.158 Z"
     id="path1010"
     style="fill:#ffffff;fill-opacity:1;stroke:#000000;stroke-width:0.684193;stroke-miterlimit:4;stroke-dasharray:none;stroke-opacity:1" /><path
     d="m 32,37 c 3.878,0 8,-2.1 8,-6.071 L 39,16.984 a 1,1 0 0 0 -1.574,-0.745 9.243,9.243 0 0 1 -10.854,0 A 1,1 0 0 0 25,16.984 L 24,31 c 0,3.9 4.122,6 8,6 z M 26.877,18.76 a 11.235,11.235 0 0 0 10.246,0 L 38,31 c 0,2.3 -2.425,3.661 -5,3.943 V 33 h -2 v 1.943 c -2.575,-0.281 -5,-1.634 -5,-3.872 z"
     id="path1012"
     style="fill:#ffffff;fill-opacity:1;stroke:#000000;stroke-width:0.684193;stroke-miterlimit:4;stroke-dasharray:none;stroke-opacity:1" /><path
     d="m 28,22 h 2 v 2 h -2 z"
     id="path1014"
     style="fill:#ffffff;fill-opacity:1;stroke:#000000;stroke-width:0.684193;stroke-miterlimit:4;stroke-dasharray:none;stroke-opacity:1" /><path
     d="m 34,22 h 2 v 2 h -2 z"
     id="path1016"
     style="fill:#ffffff;fill-opacity:1;stroke:#000000;stroke-width:0.684193;stroke-miterlimit:4;stroke-dasharray:none;stroke-opacity:1" /><path
     d="m 24,10 h 2 v 2 h -2 z"
     id="path1018"
     style="fill:#ffffff;fill-opacity:1;stroke:#000000;stroke-width:0.684193;stroke-miterlimit:4;stroke-dasharray:none;stroke-opacity:1" /><path
     d="m 38,10 h 2 v 2 h -2 z"
     id="path1020"
     style="fill:#ffffff;fill-opacity:1;stroke:#000000;stroke-width:0.684193;stroke-miterlimit:4;stroke-dasharray:none;stroke-opacity:1" /><path
     d="m 42,56 h 2 v 2 h -2 z"
     id="path1022"
     style="fill:#ffffff;fill-opacity:1;stroke:#000000;stroke-width:0.684193;stroke-miterlimit:4;stroke-dasharray:none;stroke-opacity:1" /><path
     d="m 38,54 h 2 v 2 h -2 z"
     id="path1024"
     style="fill:#ffffff;fill-opacity:1;stroke:#000000;stroke-width:0.684193;stroke-miterlimit:4;stroke-dasharray:none;stroke-opacity:1" /><path
     d="m 32,41 a 11.368,11.368 0 0 1 -7.343,-2.754 l -1.314,1.508 a 13.167,13.167 0 0 0 17.314,0 L 39.343,38.246 A 11.368,11.368 0 0 1 32,41 Z"
     id="path1026"
     style="fill:#ffffff;fill-opacity:1;stroke:#000000;stroke-width:0.684193;stroke-miterlimit:4;stroke-dasharray:none;stroke-opacity:1" /></g></svg>
